HIERARCHY
ROOT ui
{
	 OFFSET 0 0 0
	 CHANNELS 3 XPosition YPosition Z Position
	 EndSite
	 {
	 OFFSET 0 -1 0
	 }
}
ROOT li
{
	 OFFSET 0 0 0
	 CHANNELS 3 XPosition YPosition Z Position
	 EndSite
	 {
	 OFFSET 0 -1 0
	 }
}
ROOT ul
{
	 OFFSET 0 0 0
	 CHANNELS 3 XPosition YPosition Z Position
	 EndSite
	 {
	 OFFSET 0 -1 0
	 }
}
ROOT ll
{
	 OFFSET 0 0 0
	 CHANNELS 3 XPosition YPosition Z Position
	 EndSite
	 {
	 OFFSET 0 -1 0
	 }
}
ROOT tt
{
	 OFFSET 0 0 0
	 CHANNELS 3 XPosition YPosition Z Position
	 EndSite
	 {
	 OFFSET 0 -1 0
	 }
}
ROOT tb
{
	 OFFSET 0 0 0
	 CHANNELS 3 XPosition YPosition Z Position
	 EndSite
	 {
	 OFFSET 0 -1 0
	 }
}
ROOT td
{
	 OFFSET 0 0 0
	 CHANNELS 3 XPosition YPosition Z Position
	 EndSite
	 {
	 OFFSET 0 -1 0
	 }
}
ROOT v
{
	 OFFSET 0 0 0
	 CHANNELS 3 XPosition YPosition Z Position
	 EndSite
	 {
	 OFFSET 0 -1 0
	 }
}
ROOT bn
{
	 OFFSET 0 0 0
	 CHANNELS 3 XPosition YPosition Z Position
	 EndSite
	 {
	 OFFSET 0 -1 0
	 }
}
MOTION
Frames: 18
Frame Time: 0.002
-0.012453350067138672	4.2779800295829774E-4	0		0.44699874877929685	-2.417630126953125	0		-1.06424560546875	-0.03791213989257813	0		-0.7788450927734375	-2.39803857421875	0		1.3735263671875	-0.8459699096679687	0		3.11935986328125	-0.394228515625	0		4.58383203125	-0.19979776000976562	0		5.49813671875	0.1678978271484375	0		-0.23254164123535156	5.9509638671875	0		
-0.006004271984100341	0.0030117950439453125	0		0.3955206298828125	-2.389135009765625	0		-1.064919921875	-0.042052314758300784	0		-0.7615844116210938	-2.385528564453125	0		1.416759765625	-0.849218017578125	0		3.145018798828125	-0.3764338989257813	0		4.59409814453125	-0.20696290588378907	0		5.50156005859375	0.16671463012695312	0		-0.11107263946533204	5.9606474609375	0		
-0.012940366744995118	-0.007176583766937256	0		0.39734039306640623	-2.3925390625	0		-1.0616932373046875	-0.04225265121459961	0		-0.8217891845703125	-2.389697021484375	0		1.379904052734375	-0.84711083984375	0		3.105012939453125	-0.38753546142578127	0		4.5911640625	-0.21591700744628906	0		5.504818359375	0.16551925659179687	0		-0.10791923522949219	5.9613193359375	0		
-0.002771588087081909	-6.50543987751007E-4	0		0.4384896240234375	-2.42462109375	0		-1.048668212890625	-0.04361913299560547	0		-0.7702443237304688	-2.398771240234375	0		1.3828265380859375	-0.8476729125976562	0		3.133104248046875	-0.3827894897460937	0		4.594181640625	-0.21696293640136718	0		5.51372021484375	0.15423367309570313	0		-0.08780072784423829	5.9707041015625	0		
0.007183781147003174	0.004883759975433349	0		0.4382469482421875	-2.40997900390625	0		-1.1057611083984376	-0.03976538848876953	0		-0.7955490112304687	-2.38751611328125	0		1.396552490234375	-0.8484108276367187	0		3.147776611328125	-0.39080084228515627	0		4.5942109375	-0.20593092346191405	0		5.515873046875	0.16909521484375	0		-0.08212393188476562	5.9673388671875	0		
0.009823936462402344	0.004553236961364746	0		0.4369150390625	-2.389303466796875	0		-1.0491005859375	-0.038885963439941405	0		-0.7362903442382812	-2.390732421875	0		1.3911259765625	-0.845797607421875	0		3.15965771484375	-0.3747351379394531	0		4.61371337890625	-0.21320611572265624	0		5.52753515625	0.16782925415039063	0		-0.21297218322753905	5.94937353515625	0		
-0.06878589630126954	0.003670382022857666	0		0.41001153564453124	-2.38916259765625	0		-1.0466934814453126	-0.03905831909179688	0		-0.7721749877929688	-2.389275390625	0		1.43338330078125	-0.8490034790039063	0		3.109709716796875	-0.39255007934570313	0		4.6019931640625	-0.21988925170898438	0		5.52100634765625	0.16893403625488282	0		-0.22495445251464843	5.93835595703125	0		
0.007305058002471923	-0.001931879997253418	0		0.4367918701171875	-2.394952880859375	0		-1.0485955810546874	-0.043149810791015625	0		-0.7363961181640625	-2.395077392578125	0		1.435449951171875	-0.8494783325195312	0		3.146059814453125	-0.38084255981445314	0		4.61513720703125	-0.2209578857421875	0		5.5180595703125	0.16003591918945312	0		-0.08964672088623046	5.95873681640625	0		
-0.06468250274658204	0.0031164000034332277	0		0.45092205810546876	-2.42450732421875	0		-1.042600341796875	-0.039376144409179685	0		-0.7577944946289062	-2.397855224609375	0		1.43728076171875	-0.8499202270507813	0		3.16276318359375	-0.39174969482421873	0		4.59606201171875	-0.22039224243164063	0		5.5299697265625	0.1569422149658203	0		-0.08702713012695312	5.9584716796875	0		
0.013974194526672363	4.806030094623566E-4	0		0.4714949951171875	-2.41715380859375	0		-1.0368642578125	-0.036594661712646484	0		-0.752288330078125	-2.394103759765625	0		1.4040460205078125	-0.8406979370117188	0		3.162805419921875	-0.3703054504394531	0		4.6118134765625	-0.21638421630859375	0		5.52681787109375	0.16419383239746094	0		-0.05532201766967773	5.97969921875	0		
-0.05846979141235351	0.006583206176757813	0		0.41823651123046873	-2.3884423828125	0		-1.039468017578125	-0.03965932846069336	0		-0.7259743041992187	-2.389721923828125	0		1.4423052978515625	-0.8477346801757812	0		3.1658251953125	-0.39287155151367187	0		4.60839208984375	-0.20896505737304688	0		5.5283232421875	0.16543716430664063	0		-0.06750194549560547	5.968724609375	0		
0.01666196060180664	2.7292000129818918E-5	0		0.44417520141601563	-2.394146728515625	0		-1.0382369384765624	-0.039787391662597656	0		-0.7649521484375	-2.390148193359375	0		1.40352978515625	-0.8443439331054687	0		3.1852783203125	-0.3796825866699219	0		4.62135205078125	-0.223783447265625	0		5.5295712890625	0.16475752258300783	0		-0.21336050415039062	5.93719482421875	0		
0.017696525573730467	-1.703449934720993E-4	0		0.4180902404785156	-2.390883544921875	0		-1.0372054443359375	-0.03990622329711914	0		-0.7617493896484375	-2.3713271484375	0		1.44238525390625	-0.8513383178710937	0		3.156307861328125	-0.37856906127929685	0		4.6223701171875	-0.2243250732421875	0		5.52547265625	0.15624072265625	0		-0.21286396789550782	5.9380322265625	0		
0.015496283531188966	-0.0032948160171508787	0		0.41878604125976565	-2.391090087890625	0		-1.036353759765625	-0.040016284942626955	0		-0.786451416015625	-2.392993408203125	0		1.40835400390625	-0.8419725341796875	0		3.17213427734375	-0.3792320556640625	0		4.61632080078125	-0.21868290710449217	0		5.52148486328125	0.16378602600097655	0		-0.07823513793945312	5.95742578125	0		
-0.049746025085449216	7.551770210266113E-4	0		0.4529826965332031	-2.410899169921875	0		-1.023482666015625	-0.03034064292907715	0		-0.7458880615234375	-2.392845947265625	0		1.4540623779296875	-0.839045654296875	0		3.181563232421875	-0.3927431945800781	0		4.6218515625	-0.2272056884765625	0		5.54114599609375	0.16095184326171874	0		-0.17921510314941405	5.95714404296875	0		
0.023843231201171874	0.0022635810375213625	0		0.42589019775390624	-2.3845576171875	0		-1.0269925537109375	-0.03336135101318359	0		-0.8238049926757812	-2.35650390625	0		1.4545657958984375	-0.8392671508789062	0		3.198584716796875	-0.3663525695800781	0		4.631642578125	-0.21375727844238282	0		5.54170068359375	0.16052169799804689	0		-0.06114480209350586	5.967845703125	0		
-0.05675843048095703	0.0016273020505905152	0		0.42211404418945314	-2.389634765625	0		-1.03470068359375	-0.04029978561401367	0		-0.7556846313476563	-2.36785595703125	0		1.452894775390625	-0.84242724609375	0		3.164607421875	-0.3869953308105469	0		4.6279443359375	-0.22002079772949218	0		5.5280205078125	0.15440269470214843	0		-0.0756595458984375	5.95699462890625	0		
0.0205305061340332	-9.17182981967926E-4	0		0.4203056640625	-2.39173388671875	0		-1.0343817138671876	-0.040380126953125	0		-0.7978187866210937	-2.38716552734375	0		1.453182861328125	-0.8426036987304687	0		3.182984130859375	-0.3835720520019531	0		4.62514599609375	-0.2262632598876953	0		5.53349462890625	0.161974853515625	0		-0.20849359130859374	5.93734521484375	0		
